<svg width="60" height="60" viewBox="0 0 60 60" fill="none" xmlns="http://www.w3.org/2000/svg">
  <g clip-path="url(#clip0_5601_97695)">
    <path d="M42.167 29.5188C45.0266 25.436 46.5382 20.6432 46.5382 15.6586V4.54503C46.5382 3.99617 46.1568 3.52055 45.6213 3.40107L30.4894 0.0278092C30.3214 -0.00926972 30.1475 -0.00926972 29.9795 0.0278092L14.8481 3.40107C14.312 3.52055 13.9312 3.99617 13.9312 4.54503V15.6586C13.9312 20.6432 15.4427 25.436 18.3023 29.5184C21.162 33.6012 25.1496 36.6595 29.8343 38.3633C29.9634 38.41 30.0994 38.4338 30.2344 38.4338C30.3699 38.4338 30.5059 38.41 30.635 38.3633C35.3197 36.6599 39.3073 33.6012 42.167 29.5188ZM30.2344 36.0104C26.1777 34.4462 22.7221 31.7436 20.2222 28.1739C17.64 24.4875 16.2749 20.1598 16.2749 15.6586V5.48436L30.2344 2.37248L44.1944 5.48436V15.6586C44.1944 20.1594 42.8294 24.4871 40.2471 28.1739C37.7468 31.7436 34.2911 34.4462 30.2344 36.0104Z" fill="#181818" />
    <path d="M42.2009 8.02159C42.2009 7.47227 41.8201 6.99711 41.284 6.87764L30.4899 4.47117C30.3219 4.43409 30.1475 4.43409 29.9795 4.47117L19.185 6.87764C18.5533 7.01863 18.1555 7.64485 18.2965 8.27656C18.437 8.90828 19.0637 9.30608 19.6949 9.16508L30.2345 6.81584L39.8572 8.96092V15.6585C39.8572 19.2647 38.7636 22.7318 36.6949 25.6858C35.0328 28.0588 32.8071 29.9815 30.2345 31.2737C27.6619 29.9819 25.4367 28.0588 23.7745 25.6858C21.9851 23.131 20.9103 20.1446 20.6668 17.0501C20.6462 16.7919 20.6315 16.531 20.6228 16.2737C20.6004 15.6264 20.0543 15.1206 19.4111 15.1426C18.7643 15.165 18.258 15.7075 18.2804 16.3543C18.2905 16.6459 18.307 16.942 18.3299 17.2341C18.6064 20.7456 19.8254 24.1331 21.8547 27.0303C23.8592 29.8917 26.5866 32.1769 29.7424 33.6381C29.8985 33.7104 30.067 33.7466 30.235 33.7466C30.403 33.7466 30.571 33.7104 30.7271 33.6381C33.8833 32.1764 36.6107 29.8917 38.6148 27.0303C40.9608 23.6808 42.2014 19.7481 42.2014 15.6585V8.02159H42.2009Z" fill="#399A3A" />
    <path d="M26.8959 21.7419C27.101 21.9846 27.3953 22.1333 27.7125 22.1544C27.7386 22.1562 27.7647 22.1571 27.7908 22.1571C28.0801 22.1571 28.3607 22.05 28.5768 21.8546L37.0729 14.1678C37.5526 13.7338 37.5897 12.9927 37.1558 12.5125C36.7213 12.0328 35.9802 11.9957 35.5005 12.4296L27.903 19.303L25.7345 16.7381C25.3171 16.2442 24.5773 16.1819 24.0834 16.5999C23.589 17.0178 23.5272 17.7571 23.9447 18.2515L26.8959 21.7419Z" fill="#181818" />
    <path d="M20.3663 38.7832C19.7488 37.9711 18.8511 37.4547 17.839 37.3284C16.8269 37.2025 15.8299 37.4822 15.0315 38.1171C14.658 38.4142 14.3563 38.7703 14.1288 39.1627L13.7846 38.714C13.4788 38.3162 13.3108 37.8209 13.3108 37.3192V26.7472C13.3108 24.5874 11.5534 22.8301 9.39371 22.8301C7.36216 22.8301 5.68582 24.3553 5.49402 26.3773L4.23975 39.6053C4.12942 40.7639 4.45627 41.9134 5.16351 42.8472L15.1245 55.8175V58.8278C15.1245 59.475 15.6491 59.9996 16.2963 59.9996C16.9432 59.9996 17.4682 59.475 17.4682 58.8278V55.4192C17.4682 55.1611 17.3826 54.9102 17.2256 54.7056L7.02707 41.4258C6.67963 40.9672 6.5185 40.3991 6.57297 39.8264L7.8277 26.5989C7.90461 25.7863 8.57798 25.1738 9.39371 25.1738C10.2616 25.1738 10.9671 25.8797 10.9671 26.7472V37.3192C10.9671 38.3346 11.3076 39.3366 11.9261 40.1414L14.3792 43.3361C14.3829 43.3411 14.3866 43.3462 14.3902 43.3512L16.3696 45.9289C16.7642 46.442 17.4998 46.5386 18.013 46.1445C18.5261 45.7503 18.6227 45.0147 18.2286 44.5011L16.2428 41.9152C15.7827 41.3064 15.8926 40.4275 16.4914 39.9514C16.7921 39.712 17.1679 39.6067 17.5492 39.6538C17.9306 39.7014 18.2689 39.8964 18.5014 40.2022L23.2324 46.4196C24.1635 47.6432 24.6762 49.1639 24.6762 50.7015V58.8278C24.6762 59.475 25.2008 59.9996 25.8481 59.9996C26.4953 59.9996 27.0199 59.475 27.0199 58.8278V50.7015C27.0199 48.6544 26.3374 46.6297 25.0978 45.0005L20.3663 38.7832Z" fill="#181818" />
    <path d="M55.9008 39.6053L54.646 26.3773C54.4542 24.3553 52.7774 22.8301 50.7463 22.8301C48.5866 22.8301 46.8293 24.5874 46.8293 26.7472V37.3192C46.8293 37.8209 46.6608 38.3162 46.3555 38.714L46.0108 39.1627C45.7837 38.7708 45.4821 38.4147 45.1085 38.1171C44.3102 37.4822 43.3132 37.2025 42.301 37.3284C41.2889 37.4547 40.3913 37.9711 39.7737 38.7832L35.0427 45.0005C33.8031 46.6297 33.1201 48.6544 33.1201 50.702V58.8278C33.1201 59.475 33.6452 59.9996 34.292 59.9996C34.9393 59.9996 35.4639 59.475 35.4639 58.8278V50.7015C35.4639 49.1639 35.9766 47.6432 36.9077 46.4196L41.6387 40.2022C41.8717 39.8964 42.21 39.7019 42.5913 39.6538C42.9726 39.6067 43.3484 39.712 43.6492 39.9514C44.2475 40.4275 44.3578 41.3064 43.8973 41.9152L41.9119 44.5011C41.5178 45.0147 41.6144 45.7503 42.1276 46.1445C42.6407 46.5386 43.3763 46.442 43.7709 45.9289L45.7498 43.3512C45.7535 43.3466 45.7567 43.342 45.7604 43.3375L48.2144 40.1418C48.8324 39.3366 49.173 38.3346 49.173 37.3192V26.7472C49.173 25.8797 49.8789 25.1738 50.7463 25.1738C51.5621 25.1738 52.2355 25.7863 52.3128 26.5989L53.5675 39.8264C53.6216 40.3995 53.4604 40.9672 53.1176 41.4199L42.9144 54.7056C42.7574 54.9102 42.6723 55.1615 42.6723 55.4197V58.8278C42.6723 59.475 43.1969 59.9996 43.8442 59.9996C44.4914 59.9996 45.016 59.475 45.016 58.8278V55.8175L54.9811 42.8412C55.6838 41.9134 56.0106 40.7639 55.9008 39.6053Z" fill="#181818" />
    <path d="M18.7894 13.1365C19.2019 13.4116 19.7603 13.3942 20.1531 13.0917C20.5225 12.8069 20.696 12.3098 20.5715 11.8584C20.4383 11.3746 20.0052 11.0194 19.5021 10.9919C19.0041 10.9649 18.534 11.2688 18.3513 11.7316C18.1508 12.2402 18.3362 12.8317 18.7894 13.1365Z" fill="#399A3A" />
  </g>
  <defs>
    <clipPath id="clip0_5601_97695">
      <rect width="60" height="60" fill="white" />
    </clipPath>
  </defs>
</svg>