<svg width="14" height="14" viewBox="0 0 14 14" fill="none" xmlns="http://www.w3.org/2000/svg">
  <g clip-path="url(#clip0_5601_98245)">
    <path d="M1.7976 0.000976562H12.2032C13.1918 0.000976562 14 0.80943 14 1.79802V12.2037C14 13.192 13.1918 13.9999 12.2032 13.9999H1.7976C0.809013 13.9999 0 13.1919 0 12.2037V1.79802C0 0.80943 0.809013 0.000976562 1.7976 0.000976562ZM10.1988 1.55577C9.85171 1.55577 9.56858 1.84002 9.56858 2.18694V3.69492C9.56858 4.04198 9.85171 4.32558 10.1988 4.32558H11.781C12.1275 4.32558 12.4112 4.04198 12.4112 3.69492V2.18694C12.4112 1.84002 12.1275 1.55577 11.781 1.55577H10.1988ZM12.4173 5.92092H11.1854C11.3022 6.30242 11.3656 6.70474 11.3656 7.12301C11.3656 9.45084 9.41649 11.3389 7.01316 11.3389C4.61043 11.3389 2.66131 9.45084 2.66131 7.12301C2.66131 6.70474 2.72524 6.30242 2.84149 5.92092H1.55633V11.8351C1.55633 12.1414 1.80642 12.3905 2.11241 12.3905H11.8614C12.1677 12.3905 12.4173 12.1414 12.4173 11.8351V5.92092ZM7.01321 4.24606C5.46107 4.24606 4.20201 5.46536 4.20201 6.97083C4.20201 8.47476 5.46107 9.695 7.01321 9.695C8.56618 9.695 9.82529 8.47476 9.82529 6.97083C9.82529 5.46532 8.56618 4.24606 7.01321 4.24606Z" fill="white" />
  </g>
  <defs>
    <clipPath id="clip0_5601_98245">
      <rect width="14" height="14" fill="white" />
    </clipPath>
  </defs>
</svg>