<svg width="129" height="54" viewBox="0 0 129 54" fill="none" xmlns="http://www.w3.org/2000/svg">
  <path d="M26.9904 42.3403C30.9163 42.3403 34.6814 40.7808 37.4575 38.0048C40.2335 35.2287 41.7931 31.4636 41.7931 27.5377C41.7922 23.6124 40.2322 19.8481 37.4563 17.0728C34.6804 14.2975 30.9158 12.7384 26.9904 12.7384C23.0651 12.7384 19.3005 14.2975 16.5246 17.0728C13.7486 19.8481 12.1887 23.6124 12.1878 27.5377C12.1878 31.4636 13.7474 35.2287 16.5234 38.0048C19.2994 40.7808 23.0645 42.3403 26.9904 42.3403V42.3403Z" stroke="#A0A3BC" stroke-width="2" />
  <path d="M18.6131 40.1351C16.3903 41.2532 14.2002 41.601 13.2229 40.7662C10.7805 38.6842 14.3008 30.5541 21.0865 22.621C27.8722 14.6879 35.3544 9.93554 37.7984 12.0234C38.8184 12.8942 38.7983 14.8161 37.9367 17.3373" stroke="#A0A3BC" stroke-width="2" />
  <path d="M35.2202 40.1351C37.4463 41.2532 39.8099 41.601 40.7872 40.7662C43.2296 38.6842 39.7094 30.5541 32.9203 22.621C26.1313 14.6879 18.6549 9.93554 16.2125 12.0234C15.1925 12.8942 15.2118 14.8161 16.0734 17.3373" stroke="#A0A3BC" stroke-width="2" />
  <path d="M41.4954 25.1582C44.7642 26.0073 45.8614 26.9695 45.8614 28.3885C45.8614 31.2986 37.3834 33.6052 26.9325 33.6052C16.4816 33.6052 8.04303 31.6824 8.04303 28.5762C8.04303 26.9485 10.0018 25.8531 12.4852 24.9856" stroke="#A0A3BC" stroke-width="2.086" />
  <path d="M26.9359 51.8718C30.2109 51.8718 33.4538 51.2267 36.4794 49.9733C39.5051 48.7199 42.2542 46.8827 44.5697 44.5668C46.8853 42.2508 48.722 39.5014 49.9749 36.4756C51.2278 33.4497 51.8724 30.2067 51.8718 26.9317C51.8707 20.319 49.2431 13.9776 44.5668 9.30208C39.8905 4.62659 33.5486 2 26.9359 2C20.3232 2 13.9813 4.62659 9.30504 9.30208C4.62877 13.9776 2.00111 20.319 2 26.9317C1.99945 30.2067 2.64403 33.4497 3.89693 36.4756C5.14983 39.5014 6.98651 42.2508 9.30208 44.5668C11.6176 46.8827 14.3667 48.7199 17.3924 49.9733C20.418 51.2267 23.6609 51.8718 26.9359 51.8718V51.8718Z" stroke="#A0A3BC" stroke-width="3" />
  <path d="M19.1897 37.1371L27.0239 20.5861L34.8774 37.1363H31.8902L27.0348 26.8739L22.1827 37.1371H19.1897Z" fill="white" />
  <path d="M27.0231 20.5853L19.1897 37.1363H22.1827L27.0357 26.8731L31.8902 37.1355H34.8766L27.0231 20.5853Z" fill="#A0A3BC" stroke="#A0A3BC" stroke-width="2" />
  <path d="M65.4808 22.1107L67.0934 16.8303L68.7077 22.1107H65.4808ZM57.8536 29.5887H63.279L64.3074 26.216H69.8811L70.907 29.5887H76.3316L70.0278 11.1141H64.1607L57.8536 29.5887ZM77.6852 29.5887H86.78C90.6204 29.5887 92.9371 27.2419 92.9371 24.3083C92.9487 23.6304 92.8102 22.9582 92.5315 22.3401C92.2529 21.7219 91.841 21.173 91.3253 20.7328C90.8415 20.328 90.2974 20.0014 89.7127 19.7647C90.1681 19.5396 90.5842 19.2425 90.9448 18.8846C91.3425 18.5066 91.659 18.0515 91.8752 17.5472C92.0913 17.0429 92.2025 16.4998 92.202 15.9511C92.202 13.2824 90.0027 11.1124 86.1908 11.1124H77.6894L77.6852 29.5887ZM82.8214 18.2988V15.0727H85.1682C85.391 15.0572 85.6146 15.0872 85.8254 15.1609C86.0362 15.2345 86.2299 15.3503 86.3945 15.5011C86.5592 15.652 86.6914 15.8348 86.7832 16.0383C86.875 16.2419 86.9243 16.462 86.9284 16.6853C86.9245 16.9087 86.8751 17.1289 86.7834 17.3326C86.6917 17.5362 86.5595 17.7191 86.3948 17.8701C86.2301 18.021 86.0365 18.1368 85.8256 18.2106C85.6147 18.2843 85.3911 18.3143 85.1682 18.2988H82.8214ZM82.8214 25.6293V21.814H85.6074C85.8675 21.8037 86.1271 21.8449 86.3712 21.9352C86.6153 22.0255 86.8392 22.1632 87.0299 22.3403C87.2207 22.5174 87.3745 22.7305 87.4827 22.9672C87.5908 23.204 87.6511 23.4598 87.6601 23.7199C87.6511 23.9801 87.5908 24.2359 87.4827 24.4727C87.3745 24.7094 87.2207 24.9225 87.0299 25.0996C86.8392 25.2767 86.6153 25.4144 86.3712 25.5047C86.1271 25.595 85.8675 25.6362 85.6074 25.6259L82.8214 25.6293ZM98.7379 29.5879H103.868V16.0995H108.854V11.1141H93.7526V16.0995H98.7379V29.5879ZM123.359 20.3514C123.39 20.932 123.304 21.513 123.106 22.0595C122.907 22.606 122.6 23.1066 122.202 23.5312C121.805 23.9558 121.326 24.2957 120.794 24.5304C120.262 24.7651 119.688 24.8897 119.107 24.8967C118.525 24.8897 117.951 24.7651 117.419 24.5304C116.887 24.2957 116.408 23.9558 116.011 23.5312C115.614 23.1066 115.307 22.606 115.108 22.0595C114.909 21.513 114.823 20.932 114.855 20.3514C114.823 19.7708 114.909 19.1898 115.108 18.6433C115.307 18.0969 115.614 17.5962 116.011 17.1716C116.408 16.747 116.887 16.4071 117.419 16.1724C117.951 15.9378 118.525 15.8131 119.107 15.8061C119.688 15.8131 120.262 15.9378 120.794 16.1724C121.326 16.4071 121.805 16.747 122.202 17.1716C122.6 17.5962 122.907 18.0969 123.106 18.6433C123.304 19.1898 123.39 19.7708 123.359 20.3514ZM109.723 20.3514C109.694 21.5988 109.916 22.8392 110.376 23.9991C110.836 25.159 111.524 26.2147 112.399 27.1036C113.275 27.9925 114.32 28.6965 115.473 29.1738C116.626 29.6511 117.862 29.8919 119.11 29.8821C120.358 29.8919 121.595 29.6511 122.747 29.1738C123.9 28.6965 124.945 27.9925 125.821 27.1036C126.697 26.2147 127.385 25.159 127.844 23.9991C128.304 22.8392 128.526 21.5988 128.497 20.3514C128.526 19.104 128.304 17.8636 127.844 16.7037C127.385 15.5438 126.697 14.4881 125.821 13.5992C124.945 12.7103 123.9 12.0063 122.747 11.529C121.595 11.0517 120.358 10.8109 119.11 10.8208C117.862 10.8109 116.626 11.0517 115.473 11.529C114.32 12.0063 113.275 12.7103 112.399 13.5992C111.524 14.4881 110.836 15.5438 110.376 16.7037C109.916 17.8636 109.694 19.104 109.723 20.3514Z" fill="#A0A3BC" />
  <path d="M58.2031 40.2264C58.4754 41.0312 58.9897 41.7322 59.6757 42.2336C60.3616 42.735 61.1856 43.0123 62.0351 43.0275C62.5766 43.0316 63.1135 42.9269 63.6138 42.7195C64.1141 42.5122 64.5676 42.2065 64.9475 41.8206C65.3274 41.4347 65.626 40.9764 65.8254 40.4729C66.0248 39.9694 66.1211 39.431 66.1085 38.8896C66.1208 38.3484 66.0242 37.8102 65.8247 37.307C65.6251 36.8038 65.3265 36.3458 64.9466 35.9602C64.5667 35.5745 64.1133 35.269 63.6132 35.0619C63.113 34.8547 62.5764 34.7501 62.0351 34.7541C61.1773 34.7654 60.3453 35.0488 59.6588 35.5633C58.9724 36.0779 58.4671 36.7971 58.2156 37.6172L60.5071 37.8083C60.6027 37.6351 60.7227 37.4765 60.8634 37.3373C61.0162 37.1816 61.1989 37.0584 61.4006 36.9752C61.6022 36.8919 61.8186 36.8503 62.0368 36.8529C62.2917 36.8447 62.5455 36.8916 62.7806 36.9904C63.0158 37.0892 63.227 37.2375 63.3996 37.4253C63.5518 37.5935 63.6724 37.7877 63.7558 37.9986H61.2967V39.783H63.7533C63.6217 40.1288 63.3853 40.4249 63.0773 40.6298C62.7693 40.8348 62.4049 40.9384 62.0351 40.9263C61.8196 40.9348 61.6047 40.8997 61.4031 40.8233C61.2015 40.7468 61.0173 40.6305 60.8617 40.4812C60.7193 40.3532 60.5994 40.2022 60.5071 40.0345L58.2031 40.2264ZM66.4715 42.9001C66.5632 42.9277 66.6567 42.949 66.7514 42.9638C66.9522 43.0052 67.1566 43.0266 67.3616 43.0275C68.7755 43.0275 69.7042 42.072 69.8442 40.4812L70.0956 37.0448H71.8817V42.9001H74.1095V34.8798H68.1268L67.7446 39.9088C67.6943 40.5835 67.3498 40.9271 66.7262 40.9271H66.4748L66.4715 42.9001ZM75.4992 42.9001H81.6102V40.9263H77.7279V39.783H81.1643V37.872H77.7279V36.8495H81.4828V34.8798H75.5L75.4992 42.9001ZM82.7911 42.9001H85.019V39.3992L87.2451 42.9001H89.7914L86.9903 38.8267L89.5366 34.8798H87.054L85.0173 38.2786V34.8798H82.7886L82.7911 42.9001ZM92.217 42.9001H94.444V37.044H96.6073V34.8798H90.0529V37.044H92.2153L92.217 42.9001ZM97.3993 42.9001H99.6271V40.6086H100.773C101.162 40.6339 101.551 40.5781 101.917 40.4448C102.283 40.3115 102.617 40.1035 102.899 39.8341C103.18 39.5647 103.402 39.2398 103.551 38.88C103.7 38.5201 103.773 38.1332 103.764 37.7438C103.773 37.3543 103.7 36.9674 103.551 36.6075C103.402 36.2476 103.179 35.9227 102.898 35.6534C102.616 35.3841 102.282 35.1762 101.916 35.043C101.55 34.9099 101.16 34.8543 100.771 34.8798H97.3977L97.3993 42.9001ZM99.6271 38.5719V36.9166H100.58C100.693 36.9122 100.806 36.9301 100.912 36.9694C101.017 37.0086 101.115 37.0684 101.197 37.1452C101.28 37.2221 101.347 37.3145 101.394 37.4172C101.441 37.52 101.467 37.6309 101.471 37.7438C101.467 37.8567 101.441 37.9677 101.394 38.0704C101.347 38.1731 101.28 38.2655 101.197 38.3424C101.115 38.4193 101.017 38.479 100.912 38.5183C100.806 38.5575 100.693 38.5754 100.58 38.5711L99.6271 38.5719ZM104.618 42.9001H106.591L109.582 38.5074V42.8993H111.81V34.8798H109.833L106.844 39.2718V34.8798H104.616L104.618 42.9001ZM113.2 42.9001H115.428V39.3992L117.656 42.9001H120.201L117.401 38.8267L119.946 34.8798H117.461L115.424 38.2786V34.8798H113.199L113.2 42.9001ZM123.78 39.654L124.48 37.3633L125.18 39.654H123.78ZM120.47 42.9001H122.825L123.27 41.4367H125.689L126.135 42.9001H128.49L125.753 34.8798H123.207L120.47 42.9001Z" fill="#A0A3BC" />
</svg>