<svg width="11" height="11" viewBox="0 0 11 11" fill="none" xmlns="http://www.w3.org/2000/svg">
  <g clip-path="url(#clip0_518_231)">
    <path d="M10.1174 7.22024C9.44396 7.22024 8.7827 7.11491 8.15607 6.90783C7.84902 6.8031 7.47155 6.89918 7.28415 7.09165L6.04731 8.02533C4.61293 7.25966 3.72938 6.37639 2.97416 4.95278L3.88037 3.74816C4.11581 3.51304 4.20026 3.16958 4.09908 2.84731C3.89111 2.21739 3.78546 1.55644 3.78546 0.882693C3.78549 0.395971 3.38952 0 2.90283 0H0.882725C0.396032 0 6.10352e-05 0.395971 6.10352e-05 0.882664C6.10352e-05 6.46144 4.53865 11 10.1174 11C10.6041 11 11.0001 10.604 11.0001 10.1173V8.10288C11.0001 7.61621 10.6041 7.22024 10.1174 7.22024Z" fill="#FEAD04" />
  </g>
  <defs>
    <clipPath id="clip0_518_231">
      <rect width="11" height="11" fill="white" />
    </clipPath>
  </defs>
</svg>