<svg width="67" height="29" viewBox="0 0 67 29" fill="none" xmlns="http://www.w3.org/2000/svg">
  <path d="M52.8359 28C60.5679 28 66.8359 21.732 66.8359 14C66.8359 6.26801 60.5679 0 52.8359 0C45.104 0 38.8359 6.26801 38.8359 14C38.8359 21.732 45.104 28 52.8359 28Z" fill="#F4F4F4" />
  <path d="M58.1563 8.50683C56.964 7.30263 55.3806 6.56414 53.6918 6.42455C52.0029 6.28497 50.3198 6.75348 48.946 7.74558C47.5721 8.73769 46.5981 10.1881 46.1994 11.8351C45.8008 13.4822 46.0039 15.2174 46.772 16.728L46.018 20.3886C46.0101 20.425 46.0099 20.4627 46.0173 20.4992C46.0247 20.5357 46.0396 20.5703 46.0609 20.6009C46.0923 20.6472 46.137 20.6828 46.1891 20.7031C46.2412 20.7233 46.2983 20.7272 46.3526 20.7142L49.9404 19.8638C51.4466 20.6125 53.1697 20.8025 54.8029 20.4C56.4361 19.9975 57.8735 19.0286 58.8594 17.6658C59.8454 16.303 60.3158 14.6345 60.187 12.9574C60.0583 11.2803 59.3387 9.7032 58.1563 8.50683ZM57.0376 17.4351C56.2127 18.2577 55.1504 18.8007 54.0005 18.9876C52.8506 19.1746 51.671 18.9959 50.6279 18.4769L50.1279 18.2295L47.9284 18.7504L47.9349 18.723L48.3907 16.5092L48.1459 16.026C47.6129 14.9794 47.4249 13.7909 47.6088 12.6309C47.7927 11.4708 48.339 10.3987 49.1694 9.56816C50.2129 8.52498 51.628 7.93896 53.1035 7.93896C54.579 7.93896 55.9941 8.52498 57.0376 9.56816C57.0465 9.57835 57.0561 9.58793 57.0663 9.59681C58.0969 10.6427 58.6722 12.0536 58.6668 13.5219C58.6614 14.9901 58.0758 16.3968 57.0376 17.4351Z" fill="#29A71A" />
  <path d="M56.8427 15.8106C56.5731 16.2351 56.1473 16.7547 55.612 16.8836C54.6744 17.1102 53.2354 16.8914 51.4448 15.222L51.4227 15.2024C49.8483 13.7426 49.4394 12.5276 49.5383 11.5639C49.593 11.017 50.0488 10.5221 50.433 10.1992C50.4937 10.1473 50.5657 10.1104 50.6433 10.0914C50.7208 10.0724 50.8018 10.0718 50.8796 10.0896C50.9574 10.1074 51.03 10.1433 51.0915 10.1942C51.153 10.2451 51.2018 10.3097 51.2339 10.3828L51.8134 11.685C51.851 11.7695 51.865 11.8626 51.8537 11.9543C51.8425 12.0461 51.8065 12.1331 51.7495 12.2059L51.4565 12.5862C51.3937 12.6647 51.3557 12.7602 51.3476 12.8605C51.3395 12.9608 51.3616 13.0612 51.411 13.1488C51.575 13.4366 51.9683 13.8598 52.4046 14.2518C52.8942 14.6945 53.4373 15.0995 53.7811 15.2376C53.8731 15.2752 53.9742 15.2843 54.0715 15.2639C54.1687 15.2435 54.2576 15.1944 54.3267 15.123L54.6666 14.7805C54.7322 14.7158 54.8137 14.6697 54.903 14.6468C54.9922 14.6239 55.0859 14.6251 55.1745 14.6503L56.551 15.0409C56.6269 15.0642 56.6965 15.1046 56.7544 15.1589C56.8124 15.2132 56.8571 15.2801 56.8853 15.3543C56.9134 15.4286 56.9242 15.5083 56.9168 15.5874C56.9095 15.6665 56.8841 15.7428 56.8427 15.8106Z" fill="#29A71A" />
  <path d="M14 28.4004C21.732 28.4004 28 22.1324 28 14.4004C28 6.6684 21.732 0.400391 14 0.400391C6.26801 0.400391 0 6.6684 0 14.4004C0 22.1324 6.26801 28.4004 14 28.4004Z" fill="#F4F4F4" />
  <path d="M7.61502 12.9713L19.3288 8.45481C19.8725 8.2584 20.3473 8.58744 20.1712 9.40953L20.1722 9.40852L18.1777 18.8049C18.0299 19.471 17.634 19.633 17.0802 19.3192L14.0429 17.0807L12.5779 18.492C12.416 18.654 12.2793 18.7907 11.9654 18.7907L12.1811 15.6997L17.8102 10.6143C18.0552 10.3987 17.7555 10.2772 17.4325 10.4918L10.4761 14.8716L7.47733 13.9361C6.82634 13.7296 6.81217 13.2851 7.61502 12.9713Z" fill="#039BE5" />
</svg>