<svg width="14" height="14" viewBox="0 0 14 14" fill="none" xmlns="http://www.w3.org/2000/svg">
  <g clip-path="url(#clip0_5601_98239)">
    <path fill-rule="evenodd" clip-rule="evenodd" d="M12.049 8.07571C12.5134 8.52912 13.0035 8.9557 13.4201 9.45483C13.6041 9.67663 13.7782 9.90552 13.9115 10.1629C14.1003 10.5288 13.9293 10.9315 13.6012 10.9534L11.5616 10.9524C11.0356 10.9961 10.616 10.7843 10.2631 10.4247C9.98073 10.137 9.71923 9.83091 9.44771 9.53358C9.33639 9.41205 9.21988 9.2977 9.08069 9.20731C8.80226 9.02659 8.56059 9.08192 8.40148 9.37231C8.23943 9.66766 8.20267 9.99471 8.18676 10.3239C8.16491 10.8041 8.01974 10.9304 7.53731 10.9524C6.50631 11.001 5.52783 10.845 4.61887 10.3249C3.81749 9.86642 3.19605 9.21913 2.65516 8.48634C1.60203 7.05943 0.795544 5.49149 0.0707047 3.87962C-0.0924507 3.51647 0.0268685 3.32153 0.427559 3.31463C1.09292 3.3017 1.75819 3.30262 2.42434 3.31371C2.69476 3.31766 2.87379 3.47277 2.9782 3.72824C3.33818 4.61338 3.77866 5.45552 4.33156 6.23611C4.4788 6.44393 4.62894 6.65175 4.84274 6.79802C5.07926 6.95998 5.25934 6.9063 5.37061 6.64282C5.44122 6.47576 5.47213 6.29581 5.48805 6.11688C5.54076 5.50129 5.54771 4.88675 5.45525 4.27332C5.39849 3.89048 5.18285 3.64264 4.80083 3.57019C4.60589 3.53326 4.63492 3.46072 4.72931 3.34945C4.89324 3.15754 5.04743 3.03809 5.35479 3.03809H7.6598C8.02268 3.10971 8.10327 3.27272 8.15295 3.63786L8.15493 6.19825C8.15097 6.3396 8.22554 6.75906 8.48013 6.85262C8.68391 6.91923 8.81822 6.75621 8.94049 6.627C9.49237 6.04126 9.88625 5.34903 10.2381 4.63224C10.3943 4.31706 10.5286 3.98974 10.6587 3.66269C10.7551 3.42001 10.9064 3.3006 11.1798 3.30589L13.3982 3.30787C13.464 3.30787 13.5305 3.30883 13.5943 3.31973C13.9681 3.38344 14.0705 3.54425 13.9551 3.90929C13.7731 4.48201 13.4192 4.95929 13.0731 5.43878C12.7031 5.95069 12.3075 6.44508 11.9406 6.96003C11.6035 7.43027 11.6303 7.66729 12.049 8.07571Z" fill="white" />
  </g>
  <defs>
    <clipPath id="clip0_5601_98239">
      <rect width="14" height="14" fill="white" />
    </clipPath>
  </defs>
</svg>